<svg width="501" height="501" viewBox="0 0 501 501" fill="none" xmlns="http://www.w3.org/2000/svg">
<path d="M501 250.5C501 388.847 388.847 501 250.5 501C112.153 501 0 388.847 0 250.5C0 112.153 112.153 0 250.5 0C388.847 0 501 112.153 501 250.5Z" fill="#2276CB"/>
<path d="M250.5 61C199.899 61 153.93 80.8328 119.943 113.149C112.345 120.374 117.896 132.297 128.381 132.297H372.619C383.104 132.297 388.655 120.374 381.057 113.149C347.07 80.8328 301.101 61 250.5 61Z" fill="white"/>
<path fill-rule="evenodd" clip-rule="evenodd" d="M440 250.5C440 355.158 355.158 440 250.5 440C195.306 440 145.623 416.403 110.989 378.747C104.116 371.275 109.826 359.947 119.978 359.947L236.856 359.947C243.764 359.947 249.364 354.347 249.364 347.439V296.155C249.364 289.247 243.764 283.647 236.856 283.647L74.3839 283.647C68.3142 283.647 63.0752 279.293 62.3536 273.266C61.4598 265.802 61 258.205 61 250.5C61 239.56 61.927 228.837 63.7066 218.405C64.6899 212.641 69.8011 208.597 75.6481 208.597H425.352C431.199 208.597 436.31 212.642 437.293 218.405C439.073 228.838 440 239.561 440 250.5ZM333.122 352.072C349.449 352.072 362.684 338.837 362.684 322.51C362.684 306.183 349.449 292.948 333.122 292.948C316.795 292.948 303.56 306.183 303.56 322.51C303.56 338.837 316.795 352.072 333.122 352.072Z" fill="white"/>
</svg>
