<svg width="500" height="500" viewBox="0 0 500 500" fill="none" xmlns="http://www.w3.org/2000/svg">
<path d="M250 0C183.244 0 122.599 26.1646 77.7613 68.7982C67.7371 78.3296 75.0603 94.0594 88.8925 94.0594H411.107C424.94 94.0594 432.263 78.3296 422.239 68.7982C377.401 26.1646 316.756 0 250 0Z" fill="#2276CB"/>
<path fill-rule="evenodd" clip-rule="evenodd" d="M500 250C500 388.071 388.071 500 250 500C177.184 500 111.64 468.87 65.9487 419.192C56.8816 409.333 64.4136 394.389 77.8076 394.389L232 394.389C241.114 394.389 248.502 387.001 248.502 377.888V310.231C248.502 301.117 241.114 293.729 232 293.729L17.6569 293.729C9.64928 293.729 2.73769 287.986 1.7857 280.035C0.60665 270.188 0 260.165 0 250C0 235.568 1.22292 221.421 3.57076 207.659C4.86793 200.055 11.611 194.719 19.3247 194.719H480.675C488.389 194.719 495.132 200.055 496.429 207.659C498.777 221.421 500 235.568 500 250ZM359 384C380.539 384 398 366.539 398 345C398 323.461 380.539 306 359 306C337.461 306 320 323.461 320 345C320 366.539 337.461 384 359 384Z" fill="#2276CB"/>
</svg>
